%TF.GenerationSoftware,Altium Limited,Altium Designer,26.7.1 (11)*%
G04 Layer_Physical_Order=2*
G04 Layer_Color=16711680*
G04 Board_Origin=0|0*
%FSLAX45Y45*%
%MOMM*%
%TF.SameCoordinates,19D2DC97-7487-4FD0-8E6C-44387274F82C*%
%TF.FilePolarity,Positive*%
%TF.FileFunction,Copper,L2,Bot,Signal*%
%TF.Part,Single*%
G01*
G75*
%TA.AperFunction,Conductor*%
%ADD12C,0.65000*%
%TA.AperFunction,ComponentPad*%
%ADD14C,1.52400*%
%ADD15C,1.27000*%
%ADD16C,1.32080*%
%ADD17C,1.65100*%
%ADD18R,1.65100X1.65100*%
D12*
X5897500Y9025000D02*
X6527800Y8394700D01*
X9874700D01*
X5897500Y9025000D02*
Y10606000D01*
X6502500Y9410500D02*
Y10963200D01*
X6378600Y11087100D02*
X6502500Y10963200D01*
X9767700Y9957000D02*
X10021700D01*
X5897500Y10606000D02*
X6378600Y11087100D01*
X10021700Y9703000D02*
Y9957000D01*
X9767700Y9703000D02*
X10021700D01*
X10048430Y9676270D01*
X10138730D01*
X10636979Y9178021D01*
Y9156979D02*
Y9178021D01*
X9874700Y8394700D02*
X10636979Y9156979D01*
D14*
X11838500Y8374700D02*
D03*
Y3314700D02*
D03*
X5778500D02*
D03*
Y8374700D02*
D03*
X8177060Y9359840D02*
D03*
X11987700Y11161000D02*
D03*
X9860200D02*
D03*
Y9033500D02*
D03*
D15*
X6502500Y9410500D02*
D03*
X6302500D02*
D03*
D16*
X6578600Y11087100D02*
D03*
X6378600D02*
D03*
D17*
X10021700Y9449000D02*
D03*
Y9703000D02*
D03*
X9767700D02*
D03*
X10021700Y9957000D02*
D03*
X9767700D02*
D03*
X10021700Y10211000D02*
D03*
X9767700D02*
D03*
Y9449000D02*
D03*
X10020300Y10464800D02*
D03*
X9768840Y10462260D02*
D03*
X10020300Y10718800D02*
D03*
D18*
X9768840Y10716260D02*
D03*
%TF.MD5,2369e59299f3855b3feb12a3a475817c*%
M02*
