%TF.GenerationSoftware,Altium Limited,Altium Designer,26.7.1 (11)*%
G04 Layer_Color=65535*
G04 Board_Origin=0|0*
%FSLAX45Y45*%
%MOMM*%
%TF.SameCoordinates,19D2DC97-7487-4FD0-8E6C-44387274F82C*%
%TF.FilePolarity,Positive*%
%TF.FileFunction,Legend,Top*%
%TF.Part,Single*%
G01*
G75*
%TA.AperFunction,NonConductor*%
%ADD19C,0.50800*%
%ADD20C,0.25400*%
%ADD21C,0.15240*%
D19*
X6044100Y9277200D02*
G03*
X6044100Y9277200I-38100J0D01*
G01*
X7027240Y11087100D02*
G03*
X7027240Y11087100I-38100J0D01*
G01*
X9773100Y10951000D02*
G03*
X9773100Y10951000I-25400J0D01*
G01*
D20*
X8718500Y8654700D02*
Y9714700D01*
X5508500D02*
X8718500D01*
X5508500Y8644700D02*
Y9714700D01*
X7158500Y8644700D02*
X10458500D01*
X12108500D01*
X5508500Y3044700D02*
Y8644700D01*
Y3044700D02*
X12108500D01*
X12112500Y3048700D02*
Y8640700D01*
X5508500Y8644700D02*
X7158500D01*
X7519700Y9611500D02*
X8332500D01*
Y9103500D02*
Y9611500D01*
X7522240Y9103500D02*
X8332500D01*
X7519700Y9106040D02*
Y9611500D01*
X9652700Y8825800D02*
X12195200D01*
X9652700Y8826000D02*
Y11368500D01*
X12195200Y8825800D02*
Y11368500D01*
X9652700D02*
X12192700D01*
X5118100Y11747500D02*
X5321300D01*
X5118100Y2768600D02*
Y11747500D01*
Y2768600D02*
X12407900D01*
Y11747500D01*
X5321300D02*
X12407900D01*
X9486400Y3389951D02*
X9537184D01*
X9511792D01*
Y3237600D01*
X9486400D01*
X9537184D01*
X9613359D02*
Y3389951D01*
X9714926Y3237600D01*
Y3389951D01*
X9765710D02*
Y3288384D01*
X9816493Y3237600D01*
X9867277Y3288384D01*
Y3389951D01*
X10019628D02*
X9918060D01*
Y3237600D01*
X10019628D01*
X9918060Y3313775D02*
X9968844D01*
X10070411Y3237600D02*
Y3389951D01*
X10171978Y3237600D01*
Y3389951D01*
X10222762D02*
X10324329D01*
X10273545D01*
Y3237600D01*
X10451288Y3389951D02*
X10400504D01*
X10375113Y3364559D01*
Y3262992D01*
X10400504Y3237600D01*
X10451288D01*
X10476680Y3262992D01*
Y3364559D01*
X10451288Y3389951D01*
X10527463Y3237600D02*
Y3389951D01*
X10603639D01*
X10629031Y3364559D01*
Y3313775D01*
X10603639Y3288384D01*
X10527463D01*
X10578247D02*
X10629031Y3237600D01*
X10933732D02*
X10832165D01*
X10933732Y3339167D01*
Y3364559D01*
X10908340Y3389951D01*
X10857557D01*
X10832165Y3364559D01*
X10984515D02*
X11009907Y3389951D01*
X11060691D01*
X11086083Y3364559D01*
Y3339167D01*
X11060691Y3313775D01*
X11035299D01*
X11060691D01*
X11086083Y3288384D01*
Y3262992D01*
X11060691Y3237600D01*
X11009907D01*
X10984515Y3262992D01*
X11238433Y3389951D02*
X11136866D01*
Y3313775D01*
X11187650Y3339167D01*
X11213042D01*
X11238433Y3313775D01*
Y3262992D01*
X11213042Y3237600D01*
X11162258D01*
X11136866Y3262992D01*
X11289217Y3364559D02*
X11314609Y3389951D01*
X11365392D01*
X11390784Y3364559D01*
Y3262992D01*
X11365392Y3237600D01*
X11314609D01*
X11289217Y3262992D01*
Y3364559D01*
X5230933Y8526175D02*
Y8399217D01*
X5256325Y8373825D01*
X5307108D01*
X5332500Y8399217D01*
Y8526175D01*
X5383284Y8373825D02*
X5434067D01*
X5408675D01*
Y8526175D01*
X5383284Y8500784D01*
X8516600Y9608124D02*
X8491208Y9633515D01*
X8440425D01*
X8415033Y9608124D01*
Y9582732D01*
X8440425Y9557340D01*
X8491208D01*
X8516600Y9531948D01*
Y9506557D01*
X8491208Y9481165D01*
X8440425D01*
X8415033Y9506557D01*
X8567384Y9481165D02*
X8618167D01*
X8592776D01*
Y9633515D01*
X8567384Y9608124D01*
X7628567Y9027199D02*
X7603175Y9052591D01*
X7552392D01*
X7527000Y9027199D01*
Y9001807D01*
X7552392Y8976415D01*
X7603175D01*
X7628567Y8951023D01*
Y8925632D01*
X7603175Y8900240D01*
X7552392D01*
X7527000Y8925632D01*
X7679351Y9052591D02*
Y8900240D01*
X7730134Y8951023D01*
X7780918Y8900240D01*
Y9052591D01*
X7831701D02*
X7882485D01*
X7857093D01*
Y8900240D01*
X7831701D01*
X7882485D01*
X7958660Y9052591D02*
X8060227D01*
X8009444D01*
Y8900240D01*
X8212578Y9027199D02*
X8187186Y9052591D01*
X8136403D01*
X8111011Y9027199D01*
Y8925632D01*
X8136403Y8900240D01*
X8187186D01*
X8212578Y8925632D01*
X8263362Y9052591D02*
Y8900240D01*
Y8976415D01*
X8364929D01*
Y9052591D01*
Y8900240D01*
X6718300Y10820375D02*
X6667517D01*
X6692908D01*
Y10693417D01*
X6667517Y10668025D01*
X6642125D01*
X6616733Y10693417D01*
X6769084Y10668025D02*
X6819867D01*
X6794476D01*
Y10820375D01*
X6769084Y10794983D01*
X9568180Y11610291D02*
Y11483332D01*
X9593572Y11457940D01*
X9644355D01*
X9669747Y11483332D01*
Y11610291D01*
X9822098Y11457940D02*
X9720531D01*
X9822098Y11559507D01*
Y11584899D01*
X9796706Y11610291D01*
X9745923D01*
X9720531Y11584899D01*
D21*
X6104659Y9693681D02*
X6719339D01*
X6104660Y9216201D02*
Y9691181D01*
X6719340Y9216201D02*
Y9691181D01*
X6104660Y9216201D02*
X6719340D01*
X6171260Y11724260D02*
X6785940D01*
X6171260Y10939400D02*
Y11724260D01*
Y10939400D02*
X6785940D01*
Y11724260D01*
%TF.MD5,043a43fb8477e3a31a4a0f4fb62c95af*%
M02*
